<svg width="110" height="110" viewBox="0 0 110 110" fill="none" xmlns="http://www.w3.org/2000/svg">
<path opacity="0.09" d="M75 0H35C15.67 0 0 15.67 0 35V75C0 94.33 15.67 110 35 110H75C94.33 110 110 94.33 110 75V35C110 15.67 94.33 0 75 0Z" fill="#2563FF"/>
<path d="M81.25 59.6083V55.35C81.25 53.9792 80.7833 52.6667 79.9083 51.6167L68.4167 37.85C67.3083 36.5083 65.675 35.75 63.925 35.75H28.75C25.5417 35.75 22.9167 38.375 22.9167 41.5833V64.9167C22.9167 68.125 25.5417 70.75 28.75 70.75H29.275C30.5 74.1333 33.7083 76.5833 37.5 76.5833C41.2917 76.5833 44.5 74.1333 45.725 70.75H70.1375C70.8257 72.6924 72.1782 74.3291 73.9561 75.371C75.734 76.4129 77.823 76.7929 79.8539 76.4439C81.8849 76.095 83.7272 75.0395 85.0553 73.4639C86.3835 71.8883 87.1121 69.894 87.1125 67.8333C87.0833 64.0417 84.6333 60.8333 81.25 59.6083ZM73.6667 53.25H66.6667V44.85L73.6667 53.25ZM28.75 41.5833H40.4167V53.25H28.75V41.5833ZM37.5 70.75C35.8958 70.75 34.5833 69.4375 34.5833 67.8333C34.5833 66.2292 35.8958 64.9167 37.5 64.9167C39.1042 64.9167 40.4167 66.2292 40.4167 67.8333C40.4167 69.4375 39.1042 70.75 37.5 70.75ZM46.25 64.9167V59.0833H55V53.25H46.25V41.5833H60.8333V64.9167H46.25ZM78.3333 70.75C76.7292 70.75 75.4167 69.4375 75.4167 67.8333C75.4167 66.2292 76.7292 64.9167 78.3333 64.9167C79.9375 64.9167 81.25 66.2292 81.25 67.8333C81.25 69.4375 79.9375 70.75 78.3333 70.75ZM40.4167 85.3333H52.0833V79.5L69.5833 88.25H57.9167V94.0833L40.4167 85.3333Z" fill="#7851A9"/>
</svg>
