<svg width="110" height="110" viewBox="0 0 110 110" fill="none" xmlns="http://www.w3.org/2000/svg">
<path opacity="0.102" d="M75 0H35C15.67 0 0 15.67 0 35V75C0 94.33 15.67 110 35 110H75C94.33 110 110 94.33 110 75V35C110 15.67 94.33 0 75 0Z" fill="#FF4361"/>
<path d="M46.2154 50.1667L53.0667 45.3333H67.0833V50.1667H54.652L47.75 55H30.8333V50.1667H46.2154ZM48.4291 62.395L55.4978 59.8213L57.1508 64.3646L50.0821 66.9359C50.4148 69.5887 49.7587 72.2712 48.239 74.4709C46.7192 76.6706 44.4425 78.2334 41.8435 78.8608C39.2445 79.4882 36.5055 79.1362 34.1496 77.872C31.7938 76.6078 29.9861 74.5201 29.072 72.0076C28.1579 69.4951 28.2013 66.7339 29.1941 64.2515C30.1868 61.769 32.0593 59.7392 34.4537 58.5498C36.8482 57.3604 39.597 57.0948 42.1749 57.8036C44.7529 58.5125 46.9793 60.1461 48.4291 62.3926V62.395ZM39.2917 74.3333C40.894 74.3333 42.4307 73.6968 43.5638 72.5638C44.6968 71.4307 45.3333 69.894 45.3333 68.2917C45.3333 66.6893 44.6968 65.1526 43.5638 64.0196C42.4307 62.8865 40.894 62.25 39.2917 62.25C37.6893 62.25 36.1526 62.8865 35.0195 64.0196C33.8865 65.1526 33.25 66.6893 33.25 68.2917C33.25 69.894 33.8865 71.4307 35.0195 72.5638C36.1526 73.6968 37.6893 74.3333 39.2917 74.3333ZM70.7083 79.1667C69.2802 79.1667 67.8661 78.8854 66.5466 78.3389C65.2272 77.7923 64.0284 76.9913 63.0185 75.9815C62.0087 74.9716 61.2076 73.7728 60.6611 72.4534C60.1146 71.1339 59.8333 69.7198 59.8333 68.2917C59.8333 66.8635 60.1146 65.4494 60.6611 64.13C61.2076 62.8106 62.0087 61.6117 63.0185 60.6019C64.0284 59.592 65.2272 58.791 66.5466 58.2445C67.8661 57.698 69.2802 57.4167 70.7083 57.4167C73.5925 57.4167 76.3586 58.5624 78.3981 60.6019C80.4376 62.6413 81.5833 65.4074 81.5833 68.2917C81.5833 71.1759 80.4376 73.942 78.3981 75.9815C76.3586 78.0209 73.5925 79.1667 70.7083 79.1667ZM70.7083 74.3333C72.3107 74.3333 73.8474 73.6968 74.9804 72.5638C76.1135 71.4307 76.75 69.894 76.75 68.2917C76.75 66.6893 76.1135 65.1526 74.9804 64.0196C73.8474 62.8865 72.3107 62.25 70.7083 62.25C69.106 62.25 67.5692 62.8865 66.4362 64.0196C65.3032 65.1526 64.6667 66.6893 64.6667 68.2917C64.6667 69.894 65.3032 71.4307 66.4362 72.5638C67.5692 73.6968 69.106 74.3333 70.7083 74.3333ZM35.6667 52.5833H50.1667L56.45 48.3953L57.1267 45.8674L61.7957 47.1193L57.1508 64.3525L52.7477 62.2065L53.0328 61.1432L47.75 64.6667L45.3333 59.8333H35.6667V52.5833ZM64.889 40.5H74.3333V47.75H67.528L72.168 60.5003L67.6247 62.1533L62.3853 47.75H62.25V47.3827L58.8667 38.0833H52.5833V33.25H62.25L64.889 40.5Z" fill="#FE5868"/>
</svg>
