<svg width="110" height="110" viewBox="0 0 110 110" fill="none" xmlns="http://www.w3.org/2000/svg">
<path d="M75 0H35C15.67 0 0 15.67 0 35V75C0 94.33 15.67 110 35 110H75C94.33 110 110 94.33 110 75V35C110 15.67 94.33 0 75 0Z" fill="#7851A9"/>
<path d="M78.5265 55.6595L74.9355 44.8839C74.4146 43.3154 73.4126 41.951 72.0719 40.9845C70.7313 40.018 69.1201 39.4985 67.4674 39.5H60.75V34.25H50.25V39.5H43.5326C41.8799 39.4985 40.2687 40.018 38.9281 40.9845C37.5874 41.951 36.5854 43.3154 36.0645 44.8839L32.4735 55.6595C31.5196 56.0598 30.705 56.7325 30.1316 57.5935C29.5582 58.4545 29.2515 59.4655 29.25 60.5V73.625C29.25 75.6016 30.3604 77.3053 31.9774 78.2004C31.9433 78.3736 31.875 78.5311 31.875 78.7122V84.125C31.875 84.8212 32.1516 85.4889 32.6438 85.9812C33.1361 86.4734 33.8038 86.75 34.5 86.75H37.125C37.8212 86.75 38.4889 86.4734 38.9812 85.9812C39.4734 85.4889 39.75 84.8212 39.75 84.125V78.875H71.25V84.125C71.25 84.8212 71.5266 85.4889 72.0188 85.9812C72.5111 86.4734 73.1788 86.75 73.875 86.75H76.5C77.1962 86.75 77.8639 86.4734 78.3562 85.9812C78.8484 85.4889 79.125 84.8212 79.125 84.125V78.7122C79.125 78.5311 79.0568 78.371 79.0226 78.2004C79.8453 77.7519 80.5324 77.0906 81.0122 76.2858C81.492 75.4809 81.7468 74.562 81.75 73.625V60.5C81.75 58.3239 80.4165 56.4549 78.5265 55.6595ZM34.5 73.625V60.5H76.5L76.5053 73.625H34.5ZM43.5326 44.75H67.4648C68.5961 44.75 69.5989 45.4693 69.9559 46.5455L72.8591 55.25H38.1409L41.0415 46.5455C41.2157 46.0226 41.55 45.5678 41.9971 45.2455C42.4443 44.9232 42.9815 44.7499 43.5326 44.75V44.75Z" fill="white"/>
<path d="M41.0625 71C43.2371 71 45 69.2371 45 67.0625C45 64.8879 43.2371 63.125 41.0625 63.125C38.8879 63.125 37.125 64.8879 37.125 67.0625C37.125 69.2371 38.8879 71 41.0625 71Z" fill="white"/>
<path d="M69.9375 71C72.1121 71 73.875 69.2371 73.875 67.0625C73.875 64.8879 72.1121 63.125 69.9375 63.125C67.7629 63.125 66 64.8879 66 67.0625C66 69.2371 67.7629 71 69.9375 71Z" fill="white"/>
</svg>
