<!-- License: Apache. Made by Remix Design: https://github.com/Remix-Design/remixicon -->
<svg width="110" height="110" viewBox="0 0 110 110" fill="none" xmlns="http://www.w3.org/2000/svg">
    <g>
        <path opacity="0.102" d="M75 0H35C15.67 0 0 15.67 0 35V75C0 94.33 15.67 110 35 110H75C94.33 110 110 94.33 110 75V35C110 15.67 94.33 0 75 0Z" fill="#7851A9"/>
        <path d="M91.666 45.834v41.666a4.166 4.166 0 0 1 -4.166 4.166h-4.166a4.166 4.166 0 0 1 -4.166 -4.166v-4.166H20.834v4.166a4.166 4.166 0 0 1 -4.166 4.166H12.5a4.166 4.166 0 0 1 -4.166 -4.166V45.834l10.195 -20.392A8.334 8.334 0 0 1 25.987 20.834H37.5V12.5h25v8.334h11.516a8.334 8.334 0 0 1 7.455 4.608L91.666 45.834zm-8.334 8.334H16.666v20.834h66.666v-20.834zM17.65 45.834h64.7l-8.334 -16.666H25.984l-8.334 16.666zM27.084 70.834a6.25 6.25 0 1 1 0 -12.5 6.25 6.25 0 0 1 0 12.5zm45.834 0a6.25 6.25 0 1 1 0 -12.5 6.25 6.25 0 0 1 0 12.5z" fill="#D6AB00"/>
    </g>
</svg>
