<svg width="57" height="57" viewBox="0 0 57 57" fill="none" xmlns="http://www.w3.org/2000/svg">
<path opacity="0.1" fill-rule="evenodd" clip-rule="evenodd" d="M24.5416 0.791616H32.4583C45.5751 0.791616 56.2083 11.4246 56.2083 24.5416V32.4583C56.2083 45.5748 45.5751 56.2082 32.4583 56.2082H24.5416C11.4249 56.2082 0.791616 45.5748 0.791616 32.4583V24.5416C0.791616 11.4246 11.4249 0.791616 24.5416 0.791616Z" fill="url(#paint0_linear_72_96)"/>
<path d="M47.7761 6.89097C47.6601 6.57309 47.4371 6.31666 47.1536 6.17502C46.87 6.03339 46.5478 6.01744 46.2538 6.13051C45.9599 6.24358 45.7169 6.47696 45.5754 6.78209C45.4339 7.08723 45.4048 7.44062 45.4941 7.76877C47.3521 13.6428 43.6641 18.0296 40.8521 20.3792L39.7161 18.5884C39.3341 17.9878 38.4801 17.4884 37.8161 17.4796L31.4401 17.5104C30.6612 17.5362 29.9032 17.7932 29.2461 18.254L10.4581 32.7454C10.0211 33.0836 9.72373 33.5986 9.63115 34.1775C9.53856 34.7565 9.65828 35.3521 9.9641 35.8342L18.5021 49.2718C19.1421 50.2728 20.1641 50.1518 21.0761 49.4522L39.8641 34.9586C40.4041 34.5384 41.0281 33.632 41.2481 32.939L43.2441 26.02C43.4641 25.3292 43.3301 24.2754 42.9481 23.6748L42.2561 22.5836C46.0321 19.4002 49.9521 13.7748 47.7761 6.89097ZM39.0341 27.4786C38.688 27.7451 38.2975 27.934 37.885 28.0344C37.4725 28.1349 37.046 28.1449 36.63 28.064C36.214 27.9831 35.8165 27.8128 35.4603 27.5629C35.1041 27.313 34.7962 26.9883 34.5541 26.6074C34.064 25.8366 33.8719 24.8834 34.02 23.957C34.1681 23.0306 34.6443 22.2067 35.3441 21.6662C35.8927 21.2434 36.5477 21.0197 37.2175 21.0264C37.8874 21.0331 38.5386 21.2698 39.0801 21.7036C38.5361 22.0644 38.1621 22.2756 38.0921 22.3086C37.8442 22.4386 37.6438 22.6574 37.5237 22.9291C37.4036 23.2009 37.371 23.5094 37.4312 23.8042C37.4914 24.0989 37.6408 24.3625 37.855 24.5516C38.0692 24.7408 38.3354 24.8443 38.6101 24.8452C38.7821 24.8452 38.9581 24.8012 39.1241 24.7154C39.5121 24.513 39.9281 24.2732 40.3621 23.9894C40.4619 24.6495 40.3902 25.3272 40.1553 25.9445C39.9204 26.5618 39.5317 27.0936 39.0341 27.4786Z" fill="#7851A9"/>
<defs>
<linearGradient id="paint0_linear_72_96" x1="32.7855" y1="89.7855" x2="89.7855" y2="24.2145" gradientUnits="userSpaceOnUse">
<stop stop-color="#7851A9"/>
<stop offset="1" stop-color="#7851A9"/>
</linearGradient>
</defs>
</svg>
