<svg width="57" height="57" viewBox="0 0 57 57" fill="none" xmlns="http://www.w3.org/2000/svg">
<path opacity="0.1" fill-rule="evenodd" clip-rule="evenodd" d="M24.5416 0.791616H32.4583C45.575 0.791616 56.2083 11.4246 56.2083 24.5416V32.4583C56.2083 45.5748 45.575 56.2082 32.4583 56.2082H24.5416C11.4249 56.2082 0.791673 45.5748 0.791673 32.4583V24.5416C0.791673 11.4246 11.4249 0.791616 24.5416 0.791616Z" fill="url(#paint0_linear_72_95)"/>
<path fill-rule="evenodd" clip-rule="evenodd" d="M42.1391 24.2226C42.1436 24.3035 42.1377 24.3857 42.1175 24.4683L40.3107 31.7248C40.2195 32.09 39.8932 32.3474 39.5181 32.3496L28.6774 32.4045C28.676 32.4045 28.6747 32.4045 28.6732 32.4045H17.8325C17.4553 32.4045 17.1267 32.1461 17.0357 31.7788L15.2289 24.4946C15.208 24.4104 15.2021 24.3257 15.2073 24.2427C14.5083 24.0218 14 23.365 14 22.5912C14 21.6357 14.7736 20.8589 15.7246 20.8589C16.6756 20.8589 17.4493 21.6357 17.4493 22.5912C17.4493 23.1288 17.2038 23.6098 16.8196 23.9281L19.0817 26.2163C19.6534 26.7947 20.4467 27.1267 21.2583 27.1267C22.218 27.1267 23.133 26.6687 23.7092 25.9022L27.4269 20.956C27.1146 20.6427 26.9211 20.2098 26.9211 19.7323C26.9211 18.7772 27.6948 18 28.6458 18C29.5968 18 30.3704 18.7772 30.3704 19.7323C30.3704 20.1954 30.1873 20.6155 29.8913 20.9266C29.8923 20.9279 29.8936 20.9292 29.8945 20.9304L33.5851 25.8903C34.1612 26.6641 35.0794 27.1267 36.0418 27.1267C36.8609 27.1267 37.6312 26.8062 38.2103 26.2248L40.4866 23.9388C40.0943 23.6208 39.8423 23.1356 39.8423 22.5912C39.8423 21.6357 40.616 20.8589 41.567 20.8589C42.518 20.8589 43.2917 21.6357 43.2917 22.5912C43.2917 23.3442 42.8092 23.9852 42.1391 24.2226ZM40.1344 34.988C40.1344 34.5331 39.7666 34.1636 39.3131 34.1636H18.0698C17.6162 34.1636 17.2485 34.5331 17.2485 34.988V36.9672C17.2485 37.4231 17.6162 37.7921 18.0698 37.7921H39.3131C39.7666 37.7921 40.1344 37.4231 40.1344 36.9672V34.988Z" fill="#7851A9"/>
<defs>
<linearGradient id="paint0_linear_72_95" x1="32.7855" y1="89.7855" x2="89.7855" y2="24.2145" gradientUnits="userSpaceOnUse">
<stop stop-color="#7851A9"/>
<stop offset="1" stop-color="#7851A9"/>
</linearGradient>
</defs>
</svg>
