<svg width="57" height="57" viewBox="0 0 57 57" fill="none" xmlns="http://www.w3.org/2000/svg">
<path d="M37.498 25.2H36V21C36 21 36 14 29 14C22 14 22 21 22 21V25.2H20.502C19.7854 25.2 19.0982 25.4847 18.5914 25.9914C18.0847 26.4981 17.8 27.1854 17.8 27.902V39.312C17.8037 40.0262 18.0901 40.7099 18.5964 41.2136C19.1027 41.7173 19.7879 42 20.502 42H37.498C38.2147 42 38.9019 41.7153 39.4086 41.2086C39.9154 40.7019 40.2 40.0146 40.2 39.298V27.902C40.2 27.1854 39.9154 26.4981 39.4086 25.9914C38.9019 25.4847 38.2147 25.2 37.498 25.2ZM24.8 21.7C24.8 19.6 24.8 16.8 29 16.8C33.2 16.8 33.2 19.6 33.2 21.7V25.2H24.8V21.7ZM29 36.4C28.4463 36.4 27.9049 36.2358 27.4445 35.9281C26.984 35.6204 26.6251 35.1831 26.4132 34.6715C26.2013 34.1599 26.1458 33.5969 26.2538 33.0537C26.3619 32.5106 26.6286 32.0117 27.0202 31.6201C27.4117 31.2285 27.9106 30.9618 28.4538 30.8538C28.9969 30.7458 29.5599 30.8012 30.0716 31.0131C30.5832 31.2251 31.0205 31.5839 31.3282 32.0444C31.6358 32.5049 31.8 33.0462 31.8 33.6C31.8 34.3426 31.505 35.0548 30.9799 35.5799C30.4548 36.105 29.7427 36.4 29 36.4Z" fill="#7851A9"/>
<path opacity="0.1" fill-rule="evenodd" clip-rule="evenodd" d="M24.5416 0.791616H32.4583C45.575 0.791616 56.2083 11.4246 56.2083 24.5416V32.4583C56.2083 45.5748 45.575 56.2082 32.4583 56.2082H24.5416C11.4249 56.2082 0.791673 45.5748 0.791673 32.4583V24.5416C0.791673 11.4246 11.4249 0.791616 24.5416 0.791616Z" fill="url(#paint0_linear_21_6)"/>
<defs>
<linearGradient id="paint0_linear_21_6" x1="32.7855" y1="89.7855" x2="89.7855" y2="24.2145" gradientUnits="userSpaceOnUse">
<stop stop-color="#7851A9"/>
<stop offset="1" stop-color="#7851A9"/>
</linearGradient>
</defs>
</svg>
