<svg width="125" height="100" viewBox="0 0 135 200" fill="none" xmlns="http://www.w3.org/2000/svg">
    <rect width="135" height="200" rx="67.5" fill="#7851A9" />
    <line x1="13" y1="87" x2="13" y2="120" stroke="white" stroke-width="2" />
    <line x1="122" y1="87" x2="122" y2="120" stroke="white" stroke-width="2" />
    <path
        d="M67.4068 63L77.6107 86.4049L103.934 88.4955L83.917 105.051L89.9818 129.748L67.4068 116.575L44.8319 129.748L50.8966 105.051L30.8798 88.4955L57.2029 86.4049L67.4068 63Z"
        fill="white" />
    <path
        d="M15.6652 143.271L15.2128 139.425L12.7161 138.847L12.5693 137.599L22.1586 140.009L22.2832 141.068L13.5193 145.675L13.3732 144.433L15.6652 143.271ZM16.2517 139.672L16.6188 142.792L20.7272 140.716L16.2517 139.672Z"
        fill="white" />
    <path
        d="M24.8428 154.031L23.8562 151.229L16.0973 154.001L15.6947 152.857L23.4535 150.085L22.4691 147.289L23.4135 146.952L25.7872 153.693L24.8428 154.031Z"
        fill="white" />
    <path
        d="M29.2981 167.334L34.3787 166.162L35.2706 167.22L28.813 168.551L26.1939 170.792L25.4084 169.86L28.0275 167.619L30.3774 161.415L31.2775 162.483L29.2981 167.334Z"
        fill="white" />
    <path
        d="M40.2909 177.369C39.7498 178.095 39.1555 178.638 38.5079 178.997C37.8629 179.353 37.2114 179.505 36.5535 179.453C35.8955 179.401 35.2695 179.151 34.6754 178.702C34.0948 178.263 33.6863 177.731 33.4497 177.106C33.2157 176.478 33.171 175.805 33.3156 175.087C33.4662 174.368 33.7985 173.656 34.3126 172.952L34.7108 172.418C35.2417 171.705 35.8339 171.169 36.4874 170.809C37.1409 170.449 37.7996 170.294 38.4634 170.345C39.1332 170.396 39.7583 170.64 40.3389 171.079C40.9296 171.526 41.342 172.063 41.576 172.691C41.816 173.318 41.8539 173.997 41.6899 174.727C41.5284 175.453 41.1784 176.178 40.6398 176.901L40.2909 177.369ZM39.6803 176.159C40.3352 175.281 40.6615 174.474 40.6594 173.741C40.6598 173.003 40.3444 172.396 39.7131 171.919C39.0988 171.454 38.4387 171.324 37.7328 171.528C37.0329 171.731 36.3668 172.246 35.7347 173.073L35.3289 173.617C34.6943 174.469 34.3722 175.273 34.3625 176.03C34.3588 176.786 34.6691 177.4 35.2936 177.872C35.9214 178.347 36.5782 178.485 37.2638 178.287C37.952 178.086 38.6209 177.56 39.2707 176.709L39.6803 176.159Z"
        fill="white" />
    <path
        d="M52.0933 177.528L49.5881 183.291C49.2368 184.089 48.7008 184.632 47.9804 184.92C47.2638 185.21 46.4661 185.198 45.5873 184.884L45.2861 184.765C44.3607 184.357 43.7319 183.781 43.3998 183.038C43.0676 182.295 43.0882 181.483 43.4618 180.603L45.972 174.828L47.0755 175.315L44.5804 181.055C44.3139 181.668 44.2748 182.219 44.4632 182.71C44.6533 183.196 45.06 183.576 45.6833 183.851C46.3144 184.13 46.8699 184.174 47.3496 183.983C47.8332 183.794 48.2083 183.393 48.4748 182.779L50.9724 177.034L52.0933 177.528Z"
        fill="white" />
    <path
        d="M58.1489 184.565L56.0143 184.171L55.3438 187.849L54.1391 187.626L55.7965 178.534L58.805 179.09C59.8287 179.279 60.5726 179.658 61.0369 180.226C61.5054 180.795 61.6584 181.524 61.496 182.415C61.3928 182.981 61.1489 183.446 60.7643 183.81C60.3839 184.174 59.9022 184.41 59.3191 184.517L60.7503 188.771L60.7367 188.846L59.4509 188.608L58.1489 184.565ZM56.193 183.19L58.0343 183.531C58.6293 183.641 59.1297 183.574 59.5354 183.331C59.9453 183.088 60.1972 182.709 60.2913 182.192C60.3938 181.63 60.3038 181.168 60.0214 180.806C59.7431 180.445 59.2881 180.204 58.6564 180.082L56.8213 179.743L56.193 183.19Z"
        fill="white" />
    <path
        d="M76.3362 183.903C75.2537 183.806 74.4369 183.589 73.8857 183.252C73.3379 182.91 73.0038 182.423 72.8832 181.791C72.7468 181.076 72.9188 180.431 73.3992 179.855C73.8829 179.274 74.5818 178.895 75.4958 178.718C76.119 178.598 76.6967 178.611 77.2288 178.758C77.765 178.904 78.2065 179.164 78.5533 179.536C78.9042 179.908 79.1277 180.345 79.2236 180.848L78.0208 181.081C77.9162 180.532 77.6596 180.136 77.2511 179.892C76.8419 179.643 76.3194 179.581 75.6838 179.704C75.0938 179.818 74.6576 180.038 74.3752 180.364C74.0962 180.686 74.0006 181.077 74.0887 181.538C74.1592 181.908 74.3749 182.192 74.7357 182.389C75.0998 182.582 75.6781 182.711 76.4705 182.778C77.2671 182.843 77.9019 182.964 78.3748 183.14C78.8511 183.31 79.2235 183.546 79.4921 183.848C79.7649 184.148 79.9453 184.529 80.0333 184.991C80.1737 185.727 79.9996 186.372 79.5111 186.928C79.0218 187.48 78.2973 187.848 77.3376 188.034C76.7144 188.155 76.1101 188.149 75.5248 188.017C74.9388 187.88 74.4586 187.633 74.0843 187.274C73.7142 186.915 73.4788 186.471 73.378 185.943L74.5808 185.71C74.6855 186.259 74.9699 186.654 75.4339 186.896C75.9013 187.133 76.4736 187.186 77.1508 187.055C77.7824 186.933 78.2418 186.711 78.5291 186.388C78.8165 186.065 78.9178 185.681 78.8329 185.236C78.7481 184.791 78.5268 184.479 78.1693 184.298C77.8109 184.113 77.1999 183.981 76.3362 183.903Z"
        fill="white" />
    <path
        d="M88.7286 179.546L85.0507 181.132L86.3317 184.146L90.6042 182.304L90.9939 183.221L85.6023 185.546L81.9877 177.04L87.321 174.74L87.7133 175.663L83.4991 177.481L84.6609 180.215L88.3389 178.629L88.7286 179.546Z"
        fill="white" />
    <path
        d="M96.4876 175.268L94.7346 176.549L96.9187 179.583L95.9294 180.306L90.5303 172.805L93.001 171C93.8416 170.386 94.6259 170.107 95.3539 170.162C96.0852 170.214 96.7154 170.608 97.2445 171.343C97.5807 171.81 97.7472 172.31 97.744 172.841C97.7442 173.371 97.5823 173.884 97.2582 174.383L101.303 176.287L101.347 176.348L100.292 177.12L96.4876 175.268ZM94.1524 175.74L95.6645 174.635C96.1532 174.279 96.4496 173.868 96.5537 173.404C96.6612 172.938 96.5617 172.492 96.2552 172.066C95.9214 171.602 95.5272 171.348 95.0724 171.303C94.621 171.255 94.1344 171.419 93.6125 171.795L92.1055 172.896L94.1524 175.74Z"
        fill="white" />
    <path
        d="M106.284 168.931L102.25 161.923L103.118 160.911L107.86 169.579L107.158 170.399L97.9581 166.93L98.8215 165.923L106.284 168.931Z"
        fill="white" />
    <path d="M113.547 161.276L112.942 162.334L104.948 157.697L105.553 156.639L113.547 161.276Z" fill="white" />
    <path
        d="M116.001 147.699C116.887 148.128 117.483 148.719 117.789 149.47C118.093 150.217 118.081 151.066 117.754 152.019C117.4 153.052 116.746 153.752 115.793 154.119C114.841 154.482 113.745 154.448 112.506 154.017L111.667 153.725C110.856 153.442 110.192 153.05 109.675 152.548C109.16 152.041 108.829 151.465 108.684 150.818C108.535 150.171 108.581 149.496 108.821 148.796C109.139 147.867 109.654 147.213 110.366 146.833C111.074 146.452 111.901 146.375 112.848 146.602L112.45 147.76C111.721 147.619 111.142 147.661 110.715 147.889C110.29 148.113 109.974 148.525 109.768 149.126C109.515 149.862 109.589 150.535 109.988 151.145C110.389 151.75 111.091 152.227 112.094 152.576L112.94 152.871C113.887 153.2 114.708 153.264 115.404 153.063C116.099 152.861 116.569 152.404 116.813 151.691C117.033 151.051 117.057 150.51 116.886 150.07C116.712 149.624 116.285 149.22 115.604 148.858L116.001 147.699Z"
        fill="white" />
    <path
        d="M116.157 137.365L115.721 141.346L118.977 141.708L119.483 137.082L120.473 137.192L119.835 143.029L110.649 142.01L111.28 136.236L112.277 136.347L111.778 140.909L114.731 141.237L115.166 137.255L116.157 137.365Z"
        fill="white" />
    <path
        d="M32.6405 24.5411L42.7735 34.5158L40.7183 36.6037L30.5853 26.6289L32.6405 24.5411ZM38.6144 18.4724L39.6654 27.4137L39.8756 32.1838L37.5291 30.614L36.927 26.9381L36.0933 21.0335L38.6144 18.4724ZM46.4113 30.8203L38.7886 29.1954L39.015 26.3761L48.8433 28.3497L46.4113 30.8203Z"
        fill="white" />
    <path
        d="M56.3504 12.7886L55.6387 25.1735L52.6279 25.9732L54.0839 10.8747L55.9999 10.3658L56.3504 12.7886ZM62.4815 23.3559L55.7086 12.9591L54.7824 10.6892L56.7172 10.1752L65.5018 22.5537L62.4815 23.3559ZM60.9529 18.2855L61.542 20.5035L54.2839 22.4313L53.6948 20.2133L60.9529 18.2855Z"
        fill="white" />
    <path
        d="M78.6183 18.402L75.1022 17.4136L75.6278 15.4717L78.5798 16.3015C79.1 16.4478 79.5447 16.5018 79.9139 16.4635C80.2848 16.419 80.5879 16.2912 80.8231 16.08C81.0663 15.8644 81.2407 15.5685 81.3465 15.1925C81.4663 14.7663 81.4817 14.3987 81.3927 14.0896C81.31 13.7823 81.1162 13.5216 80.8112 13.3074C80.5125 13.0949 80.1 12.9147 79.5735 12.7667L77.618 12.217L74.3912 23.6959L71.5708 22.903L75.4187 9.21485L80.1945 10.5574C80.9905 10.7811 81.6807 11.0563 82.2652 11.3829C82.8559 11.7113 83.3275 12.0907 83.6799 12.5211C84.0323 12.9516 84.2584 13.4344 84.3581 13.9697C84.4596 14.4986 84.4205 15.0828 84.2408 15.7221C84.0823 16.2861 83.8075 16.7702 83.4167 17.1743C83.0321 17.5802 82.5249 17.8569 81.895 18.0044C81.2714 18.1538 80.5197 18.1216 79.6397 17.9081L78.6183 18.402ZM76.8073 24.3751L72.6426 23.2043L74.3609 21.3136L77.4257 22.1752C77.9209 22.3144 78.3471 22.3497 78.7045 22.2811C79.0637 22.2062 79.3573 22.052 79.5852 21.8186C79.8132 21.5851 79.9774 21.2897 80.0778 20.9325C80.1905 20.5313 80.2194 20.1641 80.1643 19.8308C80.1155 19.4992 79.9658 19.2137 79.7153 18.9742C79.4665 18.7284 79.1009 18.5377 78.6183 18.402L75.9013 17.6383L76.4645 15.7069L79.849 16.6583L80.2836 17.6022C81.1207 17.824 81.7499 18.1598 82.1712 18.6096C82.6006 19.0549 82.8634 19.5514 82.9596 20.0992C83.0621 20.6488 83.0359 21.1993 82.8808 21.7509C82.6342 22.6283 82.2351 23.3141 81.6837 23.8083C81.134 24.2963 80.447 24.5867 79.6229 24.6797C78.805 24.7744 77.8665 24.6728 76.8073 24.3751Z"
        fill="white" />
    <path
        d="M95.7727 28.7377L93.2105 26.1349L94.6305 24.7097L96.7816 26.895C97.1607 27.2801 97.52 27.5476 97.8595 27.6976C98.2036 27.843 98.5302 27.8824 98.8391 27.8158C99.1573 27.7492 99.4556 27.579 99.734 27.3049C100.049 26.9944 100.245 26.6828 100.321 26.3704C100.402 26.0626 100.363 25.74 100.205 25.4027C100.051 25.07 99.782 24.7088 99.3984 24.3191L97.9734 22.8715L89.4759 31.2363L87.4207 29.1485L97.5537 19.1737L101.034 22.7092C101.614 23.2984 102.077 23.8798 102.422 24.4534C102.772 25.0316 102.993 25.595 103.085 26.1436C103.178 26.6921 103.134 27.2235 102.955 27.7377C102.781 28.2473 102.457 28.7351 101.984 29.2009C101.567 29.612 101.088 29.896 100.548 30.0528C100.013 30.2144 99.4349 30.2029 98.8149 30.0185C98.1994 29.8387 97.5627 29.4378 96.9046 28.8157L95.7727 28.7377ZM91.2366 33.0249L88.2017 29.9418L90.6317 29.153L92.8651 31.4218C93.2259 31.7883 93.5785 32.0305 93.9228 32.1483C94.2718 32.2616 94.6032 32.2734 94.9169 32.1838C95.2307 32.0942 95.5198 31.9192 95.7843 31.6589C96.0812 31.3666 96.2885 31.062 96.406 30.7453C96.5282 30.4332 96.5399 30.1111 96.4413 29.7788C96.3472 29.442 96.1244 29.095 95.7727 28.7377L93.7929 26.7264L95.2402 25.3291L97.7065 27.8345L97.6155 28.8696C98.2322 29.4776 98.6118 30.0813 98.7544 30.6809C98.9062 31.2806 98.888 31.8421 98.6997 32.3655C98.516 32.8934 98.2201 33.3584 97.8118 33.7603C97.1622 34.3997 96.4754 34.7971 95.7514 34.9526C95.0321 35.1034 94.2916 35.0147 93.5299 34.6865C92.7729 34.3629 92.0084 33.809 91.2366 33.0249Z"
        fill="white" />
</svg>