<svg width="125" height="100" viewBox="0 0 135 200" fill="none" xmlns="http://www.w3.org/2000/svg">
    <rect width="135" height="200" rx="67.5" fill="white" />
    <line x1="13" y1="87" x2="13" y2="120" stroke="#7851A9" stroke-width="2" />
    <line x1="122" y1="87" x2="122" y2="120" stroke="#7851A9" stroke-width="2" />
    <path
        d="M67.4068 63L77.6107 86.4049L103.934 88.4955L83.917 105.051L89.9818 129.748L67.4068 116.575L44.8319 129.748L50.8966 105.051L30.8798 88.4955L57.2029 86.4049L67.4068 63Z"
        fill="#7851A9" />
    <path
        d="M21.4375 140.887L12.7161 138.847L12.57 137.605L22.1586 140.009L22.2528 140.809L21.4375 140.887ZM13.3732 144.433L21.3789 140.389L22.1898 140.273L22.284 141.074L13.5201 145.681L13.3732 144.433ZM16.7519 143.87L15.7561 143.989L15.1494 138.832L16.1453 138.713L16.7519 143.87Z"
        fill="#7851A9" />
    <path
        d="M24.8006 150.891L16.0973 154.001L15.6968 152.863L24.4001 149.754L24.8006 150.891ZM25.7872 153.693L24.8428 154.031L22.4712 147.295L23.4156 146.958L25.7872 153.693Z"
        fill="#7851A9" />
    <path
        d="M31.2816 162.488L29.3022 167.339L34.3787 166.162L35.2747 167.225L28.8219 168.552L26.198 170.796L25.4084 169.86L28.0323 167.615L30.3774 161.415L31.2816 162.488Z"
        fill="#7851A9" />
    <path
        d="M40.6487 176.9L40.2998 177.368C39.8851 177.924 39.4442 178.371 38.9772 178.707C38.5101 179.044 38.0315 179.268 37.5416 179.381C37.0516 179.493 36.5636 179.493 36.0777 179.38C35.5952 179.27 35.1294 179.045 34.6805 178.705C34.245 178.376 33.9057 177.992 33.6625 177.554C33.4227 177.118 33.2845 176.645 33.2479 176.134C33.2147 175.626 33.2899 175.097 33.4734 174.546C33.657 173.995 33.9561 173.441 34.3707 172.885L34.7196 172.417C35.1343 171.86 35.5756 171.417 36.0435 171.086C36.5173 170.755 37.0009 170.534 37.4943 170.424C37.9902 170.311 38.4794 170.31 38.9619 170.42C39.4479 170.533 39.9085 170.754 40.344 171.083C40.7929 171.422 41.1373 171.81 41.3771 172.246C41.6203 172.685 41.7555 173.158 41.7829 173.667C41.8161 174.175 41.7375 174.702 41.5472 175.247C41.3628 175.792 41.0633 176.343 40.6487 176.9ZM39.3327 176.637L39.6892 176.158C40.0179 175.717 40.2631 175.292 40.4248 174.884C40.5898 174.478 40.6723 174.095 40.672 173.734C40.6718 173.373 40.5911 173.039 40.4298 172.731C40.2718 172.426 40.0359 172.155 39.722 171.918C39.4182 171.688 39.0989 171.539 38.764 171.472C38.4324 171.407 38.0929 171.423 37.7455 171.521C37.4014 171.622 37.0557 171.806 36.7083 172.074C36.361 172.342 36.023 172.696 35.6943 173.138L35.3378 173.616C35.0066 174.061 34.7606 174.49 34.5997 174.904C34.4414 175.315 34.3628 175.704 34.3638 176.071C34.3708 176.437 34.4516 176.771 34.6061 177.074C34.764 177.379 34.9949 177.646 35.2987 177.876C35.616 178.116 35.9421 178.269 36.277 178.337C36.6119 178.404 36.9497 178.387 37.2904 178.284C37.637 178.18 37.9806 177.991 38.3212 177.718C38.6643 177.442 39.0015 177.081 39.3327 176.637Z"
        fill="#7851A9" />
    <path
        d="M50.9782 177.036L52.0933 177.528L49.6008 183.262C49.3241 183.899 48.9525 184.366 48.486 184.664C48.0195 184.963 47.5056 185.115 46.9443 185.122C46.3886 185.127 45.8378 185.009 45.2919 184.768C44.7188 184.515 44.2456 184.181 43.872 183.767C43.5041 183.35 43.2765 182.871 43.1894 182.328C43.1061 181.787 43.2028 181.198 43.4795 180.562L45.972 174.828L47.0813 175.317L44.5887 181.051C44.3964 181.494 44.3192 181.894 44.3569 182.253C44.3947 182.612 44.5284 182.926 44.7581 183.193C44.9916 183.463 45.302 183.683 45.6892 183.854C46.0802 184.026 46.4513 184.107 46.8024 184.095C47.1574 184.085 47.4786 183.973 47.7661 183.757C48.0535 183.542 48.2934 183.213 48.4857 182.77L50.9782 177.036Z"
        fill="#7851A9" />
    <path
        d="M55.8027 178.535L58.8113 179.091C59.4937 179.217 60.0511 179.428 60.4833 179.723C60.9198 180.019 61.2235 180.394 61.3947 180.847C61.5707 181.297 61.6049 181.818 61.4971 182.409C61.4212 182.825 61.2665 183.19 61.0329 183.504C60.8042 183.815 60.5098 184.062 60.1495 184.245C59.7942 184.424 59.3874 184.532 58.9292 184.568L58.5683 184.637L55.7408 184.114L55.907 183.131L58.0417 183.526C58.4744 183.606 58.848 183.597 59.1625 183.501C59.4777 183.4 59.7316 183.234 59.9243 183.002C60.117 182.771 60.2418 182.5 60.2987 182.187C60.3625 181.838 60.3496 181.519 60.2601 181.231C60.1706 180.944 59.991 180.702 59.7213 180.505C59.4566 180.306 59.0933 180.163 58.6314 180.078L56.8275 179.744L55.35 187.85L54.1454 187.627L55.8027 178.535ZM59.4571 188.61L57.9988 184.079L59.2545 184.305L60.7566 188.773L60.7429 188.847L59.4571 188.61Z"
        fill="#7851A9" />
    <path
        d="M78.8329 185.236C78.7925 185.024 78.7236 184.844 78.6262 184.694C78.5321 184.54 78.3914 184.412 78.204 184.311C78.0207 184.208 77.7764 184.124 77.4708 184.058C77.1695 183.991 76.7929 183.937 76.3412 183.895C75.8672 183.849 75.4339 183.78 75.0415 183.688C74.6484 183.592 74.3028 183.462 74.0047 183.3C73.7067 183.138 73.463 182.933 73.2735 182.685C73.0841 182.438 72.9557 182.137 72.8883 181.784C72.8209 181.43 72.8313 181.09 72.9197 180.762C73.008 180.435 73.1661 180.135 73.3942 179.862C73.6256 179.585 73.9184 179.347 74.2727 179.149C74.627 178.951 75.0368 178.807 75.5021 178.717C76.1834 178.585 76.7859 178.605 77.3095 178.775C77.8364 178.94 78.2646 179.208 78.594 179.58C78.9225 179.947 79.132 180.368 79.2224 180.842L78.0259 181.073C77.9609 180.733 77.8307 180.445 77.6353 180.212C77.4391 179.974 77.1793 179.809 76.8558 179.716C76.5314 179.619 76.1429 179.615 75.69 179.702C75.2621 179.785 74.9212 179.918 74.6674 180.101C74.4137 180.284 74.2392 180.498 74.1442 180.745C74.0532 180.991 74.0347 181.256 74.0887 181.538C74.1251 181.73 74.1979 181.896 74.307 182.039C74.4194 182.177 74.5735 182.296 74.7692 182.396C74.9691 182.495 75.2127 182.575 75.5 182.636C75.7914 182.696 76.134 182.741 76.5278 182.773C77.0707 182.819 77.5462 182.895 77.9542 183.001C78.3622 183.108 78.7081 183.25 78.9919 183.427C79.2791 183.6 79.5078 183.817 79.678 184.077C79.8516 184.332 79.9721 184.636 80.0395 184.99C80.1101 185.36 80.0992 185.709 80.0067 186.037C79.9142 186.365 79.749 186.662 79.5111 186.928C79.2732 187.194 78.9701 187.423 78.6017 187.615C78.2368 187.802 77.8154 187.942 77.3376 188.034C76.918 188.116 76.4935 188.137 76.0641 188.1C75.6389 188.061 75.2379 187.958 74.8612 187.79C74.4885 187.62 74.17 187.385 73.9056 187.082C73.6445 186.775 73.4707 186.395 73.3843 185.942L74.5808 185.71C74.6403 186.022 74.7517 186.278 74.915 186.48C75.0775 186.677 75.2765 186.828 75.512 186.933C75.7516 187.037 76.0111 187.099 76.2905 187.118C76.5732 187.133 76.86 187.112 77.1508 187.055C77.5705 186.974 77.9146 186.847 78.1832 186.674C78.4518 186.502 78.6403 186.293 78.7486 186.048C78.8611 185.802 78.8892 185.531 78.8329 185.236Z"
        fill="#7851A9" />
    <path
        d="M90.6042 182.304L90.9939 183.221L86.5 185.159L86.1102 184.242L90.6042 182.304ZM83.1127 176.555L86.7273 185.061L85.6023 185.546L81.9877 177.04L83.1127 176.555ZM88.3389 178.629L88.7286 179.546L84.8292 181.227L84.4394 180.31L88.3389 178.629ZM87.321 174.74L87.7133 175.663L83.2776 177.576L82.8853 176.653L87.321 174.74Z"
        fill="#7851A9" />
    <path
        d="M90.5354 172.801L93.0061 170.996C93.5665 170.587 94.1016 170.327 94.6114 170.217C95.1245 170.104 95.6031 170.142 96.047 170.332C96.4918 170.515 96.8897 170.85 97.2408 171.338C97.488 171.682 97.6441 172.047 97.7092 172.435C97.7752 172.816 97.7501 173.201 97.6337 173.59C97.5184 173.973 97.3159 174.344 97.0263 174.702L96.8274 175.012L94.5053 176.708L93.9129 175.907L95.6659 174.627C96.0213 174.367 96.2724 174.089 96.4192 173.793C96.5636 173.494 96.6189 173.194 96.5852 172.894C96.5515 172.594 96.442 172.315 96.2566 172.057C96.0489 171.769 95.8109 171.557 95.5423 171.423C95.2738 171.289 94.9762 171.252 94.6496 171.313C94.3238 171.367 93.9713 171.533 93.592 171.81L92.1106 172.892L96.9238 179.58L95.9345 180.302L90.5354 172.801ZM100.297 177.116L96.0347 175.041L97.0613 174.283L101.308 176.283L101.353 176.345L100.297 177.116Z"
        fill="#7851A9" />
    <path
        d="M106.397 169.131L102.255 161.918L103.118 160.911L107.864 169.575L107.249 170.293L106.397 169.131ZM98.8256 165.918L106.496 169.015L107.773 169.681L107.158 170.399L97.9622 166.926L98.8256 165.918Z"
        fill="#7851A9" />
    <path d="M105.556 156.633L113.55 161.27L112.942 162.334L104.948 157.697L105.556 156.633Z" fill="#7851A9" />
    <path
        d="M115.6 148.85L115.995 147.697C116.526 147.949 116.966 148.279 117.313 148.686C117.661 149.094 117.883 149.577 117.978 150.134C118.069 150.69 117.995 151.318 117.754 152.019C117.579 152.531 117.323 152.964 116.987 153.318C116.652 153.667 116.258 153.931 115.803 154.109C115.344 154.285 114.839 154.369 114.287 154.361C113.733 154.347 113.15 154.234 112.538 154.021L111.669 153.719C111.057 153.506 110.531 153.233 110.091 152.901C109.647 152.563 109.3 152.18 109.049 151.752C108.799 151.32 108.652 150.854 108.608 150.355C108.565 149.856 108.635 149.336 108.821 148.796C109.047 148.135 109.363 147.62 109.767 147.25C110.171 146.88 110.636 146.645 111.162 146.546C111.686 146.441 112.246 146.459 112.842 146.6L112.447 147.752C112.02 147.667 111.634 147.649 111.29 147.7C110.942 147.749 110.64 147.886 110.385 148.11C110.129 148.335 109.923 148.673 109.768 149.126C109.635 149.514 109.591 149.882 109.638 150.23C109.685 150.573 109.811 150.892 110.014 151.187C110.218 151.478 110.493 151.739 110.839 151.971C111.184 152.204 111.589 152.4 112.052 152.562L112.934 152.868C113.361 153.017 113.778 153.113 114.184 153.156C114.591 153.194 114.968 153.171 115.315 153.086C115.662 153 115.966 152.844 116.227 152.617C116.485 152.388 116.68 152.08 116.813 151.691C116.982 151.199 117.039 150.78 116.983 150.433C116.927 150.087 116.779 149.789 116.538 149.539C116.298 149.285 115.986 149.056 115.6 148.85Z"
        fill="#7851A9" />
    <path
        d="M119.483 137.082L120.473 137.192L119.941 142.057L118.951 141.947L119.483 137.082ZM110.782 140.792L119.968 141.811L119.835 143.029L110.649 142.01L110.782 140.792ZM115.166 137.255L116.157 137.365L115.695 141.586L114.705 141.476L115.166 137.255ZM111.28 136.236L112.277 136.347L111.752 141.149L110.755 141.038L111.28 136.236Z"
        fill="#7851A9" />
    <path
        d="M32.6405 24.5411L42.7735 34.5158L40.7183 36.6037L30.5853 26.6289L32.6405 24.5411ZM38.6144 18.4724L39.6654 27.4137L39.8756 32.1838L37.5291 30.614L36.927 26.9381L36.0933 21.0335L38.6144 18.4724ZM46.4113 30.8203L38.7886 29.1954L39.015 26.3761L48.8433 28.3497L46.4113 30.8203Z"
        fill="#7851A9" />
    <path
        d="M56.3504 12.7886L55.6387 25.1735L52.6279 25.9732L54.0839 10.8747L55.9999 10.3658L56.3504 12.7886ZM62.4815 23.3559L55.7086 12.9591L54.7824 10.6892L56.7172 10.1752L65.5018 22.5537L62.4815 23.3559ZM60.9529 18.2855L61.542 20.5035L54.2839 22.4313L53.6948 20.2133L60.9529 18.2855Z"
        fill="#7851A9" />
    <path
        d="M78.6183 18.402L75.1022 17.4136L75.6278 15.4717L78.5798 16.3015C79.1 16.4478 79.5447 16.5018 79.9139 16.4635C80.2848 16.419 80.5879 16.2912 80.8231 16.08C81.0663 15.8644 81.2407 15.5685 81.3465 15.1925C81.4663 14.7663 81.4817 14.3987 81.3927 14.0896C81.31 13.7823 81.1162 13.5216 80.8112 13.3074C80.5125 13.0949 80.1 12.9147 79.5735 12.7667L77.618 12.217L74.3912 23.6959L71.5708 22.903L75.4187 9.21485L80.1945 10.5574C80.9905 10.7811 81.6807 11.0563 82.2652 11.3829C82.8559 11.7113 83.3275 12.0907 83.6799 12.5211C84.0323 12.9516 84.2584 13.4344 84.3581 13.9697C84.4596 14.4986 84.4205 15.0828 84.2408 15.7221C84.0823 16.2861 83.8075 16.7702 83.4167 17.1743C83.0321 17.5802 82.5249 17.8569 81.895 18.0044C81.2714 18.1538 80.5197 18.1216 79.6397 17.9081L78.6183 18.402ZM76.8073 24.3751L72.6426 23.2043L74.3609 21.3136L77.4257 22.1752C77.9209 22.3144 78.3471 22.3497 78.7045 22.2811C79.0637 22.2062 79.3573 22.052 79.5852 21.8186C79.8132 21.5851 79.9774 21.2897 80.0778 20.9325C80.1905 20.5313 80.2194 20.1641 80.1643 19.8308C80.1155 19.4992 79.9658 19.2137 79.7153 18.9742C79.4665 18.7284 79.1009 18.5377 78.6183 18.402L75.9013 17.6383L76.4645 15.7069L79.849 16.6583L80.2836 17.6022C81.1207 17.824 81.7499 18.1598 82.1712 18.6096C82.6006 19.0549 82.8634 19.5514 82.9596 20.0992C83.0621 20.6488 83.0359 21.1993 82.8808 21.7509C82.6342 22.6283 82.2351 23.3141 81.6837 23.8083C81.134 24.2963 80.447 24.5867 79.6229 24.6797C78.805 24.7744 77.8665 24.6728 76.8073 24.3751Z"
        fill="#7851A9" />
    <path
        d="M95.7727 28.7377L93.2105 26.1349L94.6305 24.7097L96.7816 26.895C97.1607 27.2801 97.52 27.5476 97.8595 27.6976C98.2036 27.843 98.5302 27.8824 98.8391 27.8158C99.1573 27.7492 99.4556 27.579 99.734 27.3049C100.049 26.9944 100.245 26.6828 100.321 26.3704C100.402 26.0626 100.363 25.74 100.205 25.4027C100.051 25.07 99.782 24.7088 99.3984 24.3191L97.9734 22.8715L89.4759 31.2363L87.4207 29.1485L97.5537 19.1737L101.034 22.7092C101.614 23.2984 102.077 23.8798 102.422 24.4534C102.772 25.0316 102.993 25.595 103.085 26.1436C103.178 26.6921 103.134 27.2235 102.955 27.7377C102.781 28.2473 102.457 28.7351 101.984 29.2009C101.567 29.612 101.088 29.896 100.548 30.0528C100.013 30.2144 99.4349 30.2029 98.8149 30.0185C98.1994 29.8387 97.5627 29.4378 96.9046 28.8157L95.7727 28.7377ZM91.2366 33.0249L88.2017 29.9418L90.6317 29.153L92.8651 31.4218C93.2259 31.7883 93.5785 32.0305 93.9228 32.1483C94.2718 32.2616 94.6032 32.2734 94.9169 32.1838C95.2307 32.0942 95.5198 31.9192 95.7843 31.6589C96.0812 31.3666 96.2885 31.062 96.406 30.7453C96.5282 30.4332 96.5399 30.1111 96.4413 29.7788C96.3472 29.442 96.1244 29.095 95.7727 28.7377L93.7929 26.7264L95.2402 25.3291L97.7065 27.8345L97.6155 28.8696C98.2322 29.4776 98.6118 30.0813 98.7544 30.6809C98.9062 31.2806 98.888 31.8421 98.6997 32.3655C98.516 32.8934 98.2201 33.3584 97.8118 33.7603C97.1622 34.3997 96.4754 34.7971 95.7514 34.9526C95.0321 35.1034 94.2916 35.0147 93.5299 34.6865C92.7729 34.3629 92.0084 33.809 91.2366 33.0249Z"
        fill="#7851A9" />
</svg>